%TF.GenerationSoftware,KiCad,Pcbnew,(6.0.2)*%
%TF.CreationDate,2022-03-11T22:28:15+02:00*%
%TF.ProjectId,project1,70726f6a-6563-4743-912e-6b696361645f,rev?*%
%TF.SameCoordinates,Original*%
%TF.FileFunction,Legend,Top*%
%TF.FilePolarity,Positive*%
%FSLAX46Y46*%
G04 Gerber Fmt 4.6, Leading zero omitted, Abs format (unit mm)*
G04 Created by KiCad (PCBNEW (6.0.2)) date 2022-03-11 22:28:15*
%MOMM*%
%LPD*%
G01*
G04 APERTURE LIST*
%ADD10C,0.150000*%
%ADD11C,0.120000*%
G04 APERTURE END LIST*
D10*
%TO.C,C9*%
X54791833Y-102536042D02*
X54744214Y-102583661D01*
X54601357Y-102631280D01*
X54506119Y-102631280D01*
X54363261Y-102583661D01*
X54268023Y-102488423D01*
X54220404Y-102393185D01*
X54172785Y-102202709D01*
X54172785Y-102059852D01*
X54220404Y-101869376D01*
X54268023Y-101774138D01*
X54363261Y-101678900D01*
X54506119Y-101631280D01*
X54601357Y-101631280D01*
X54744214Y-101678900D01*
X54791833Y-101726519D01*
X55268023Y-102631280D02*
X55458500Y-102631280D01*
X55553738Y-102583661D01*
X55601357Y-102536042D01*
X55696595Y-102393185D01*
X55744214Y-102202709D01*
X55744214Y-101821757D01*
X55696595Y-101726519D01*
X55648976Y-101678900D01*
X55553738Y-101631280D01*
X55363261Y-101631280D01*
X55268023Y-101678900D01*
X55220404Y-101726519D01*
X55172785Y-101821757D01*
X55172785Y-102059852D01*
X55220404Y-102155090D01*
X55268023Y-102202709D01*
X55363261Y-102250328D01*
X55553738Y-102250328D01*
X55648976Y-102202709D01*
X55696595Y-102155090D01*
X55744214Y-102059852D01*
%TO.C,R1*%
X67502380Y-101179166D02*
X67026190Y-101512500D01*
X67502380Y-101750595D02*
X66502380Y-101750595D01*
X66502380Y-101369642D01*
X66550000Y-101274404D01*
X66597619Y-101226785D01*
X66692857Y-101179166D01*
X66835714Y-101179166D01*
X66930952Y-101226785D01*
X66978571Y-101274404D01*
X67026190Y-101369642D01*
X67026190Y-101750595D01*
X67502380Y-100226785D02*
X67502380Y-100798214D01*
X67502380Y-100512500D02*
X66502380Y-100512500D01*
X66645238Y-100607738D01*
X66740476Y-100702976D01*
X66788095Y-100798214D01*
%TO.C,C1*%
X65498133Y-119060542D02*
X65450514Y-119108161D01*
X65307657Y-119155780D01*
X65212419Y-119155780D01*
X65069561Y-119108161D01*
X64974323Y-119012923D01*
X64926704Y-118917685D01*
X64879085Y-118727209D01*
X64879085Y-118584352D01*
X64926704Y-118393876D01*
X64974323Y-118298638D01*
X65069561Y-118203400D01*
X65212419Y-118155780D01*
X65307657Y-118155780D01*
X65450514Y-118203400D01*
X65498133Y-118251019D01*
X66450514Y-119155780D02*
X65879085Y-119155780D01*
X66164800Y-119155780D02*
X66164800Y-118155780D01*
X66069561Y-118298638D01*
X65974323Y-118393876D01*
X65879085Y-118441495D01*
%TO.C,U1*%
X75970180Y-122712904D02*
X76779704Y-122712904D01*
X76874942Y-122665285D01*
X76922561Y-122617666D01*
X76970180Y-122522428D01*
X76970180Y-122331952D01*
X76922561Y-122236714D01*
X76874942Y-122189095D01*
X76779704Y-122141476D01*
X75970180Y-122141476D01*
X76970180Y-121141476D02*
X76970180Y-121712904D01*
X76970180Y-121427190D02*
X75970180Y-121427190D01*
X76113038Y-121522428D01*
X76208276Y-121617666D01*
X76255895Y-121712904D01*
%TO.C,C13*%
X65458142Y-101664257D02*
X65505761Y-101711876D01*
X65553380Y-101854733D01*
X65553380Y-101949971D01*
X65505761Y-102092828D01*
X65410523Y-102188066D01*
X65315285Y-102235685D01*
X65124809Y-102283304D01*
X64981952Y-102283304D01*
X64791476Y-102235685D01*
X64696238Y-102188066D01*
X64601000Y-102092828D01*
X64553380Y-101949971D01*
X64553380Y-101854733D01*
X64601000Y-101711876D01*
X64648619Y-101664257D01*
X65553380Y-100711876D02*
X65553380Y-101283304D01*
X65553380Y-100997590D02*
X64553380Y-100997590D01*
X64696238Y-101092828D01*
X64791476Y-101188066D01*
X64839095Y-101283304D01*
X64553380Y-100378542D02*
X64553380Y-99759495D01*
X64934333Y-100092828D01*
X64934333Y-99949971D01*
X64981952Y-99854733D01*
X65029571Y-99807114D01*
X65124809Y-99759495D01*
X65362904Y-99759495D01*
X65458142Y-99807114D01*
X65505761Y-99854733D01*
X65553380Y-99949971D01*
X65553380Y-100235685D01*
X65505761Y-100330923D01*
X65458142Y-100378542D01*
%TO.C,C3*%
X58443542Y-119581566D02*
X58491161Y-119629185D01*
X58538780Y-119772042D01*
X58538780Y-119867280D01*
X58491161Y-120010138D01*
X58395923Y-120105376D01*
X58300685Y-120152995D01*
X58110209Y-120200614D01*
X57967352Y-120200614D01*
X57776876Y-120152995D01*
X57681638Y-120105376D01*
X57586400Y-120010138D01*
X57538780Y-119867280D01*
X57538780Y-119772042D01*
X57586400Y-119629185D01*
X57634019Y-119581566D01*
X57538780Y-119248233D02*
X57538780Y-118629185D01*
X57919733Y-118962519D01*
X57919733Y-118819661D01*
X57967352Y-118724423D01*
X58014971Y-118676804D01*
X58110209Y-118629185D01*
X58348304Y-118629185D01*
X58443542Y-118676804D01*
X58491161Y-118724423D01*
X58538780Y-118819661D01*
X58538780Y-119105376D01*
X58491161Y-119200614D01*
X58443542Y-119248233D01*
%TO.C,R3*%
X70611980Y-116240866D02*
X70135790Y-116574200D01*
X70611980Y-116812295D02*
X69611980Y-116812295D01*
X69611980Y-116431342D01*
X69659600Y-116336104D01*
X69707219Y-116288485D01*
X69802457Y-116240866D01*
X69945314Y-116240866D01*
X70040552Y-116288485D01*
X70088171Y-116336104D01*
X70135790Y-116431342D01*
X70135790Y-116812295D01*
X69611980Y-115907533D02*
X69611980Y-115288485D01*
X69992933Y-115621819D01*
X69992933Y-115478961D01*
X70040552Y-115383723D01*
X70088171Y-115336104D01*
X70183409Y-115288485D01*
X70421504Y-115288485D01*
X70516742Y-115336104D01*
X70564361Y-115383723D01*
X70611980Y-115478961D01*
X70611980Y-115764676D01*
X70564361Y-115859914D01*
X70516742Y-115907533D01*
%TO.C,C11*%
X54315642Y-104485842D02*
X54268023Y-104533461D01*
X54125166Y-104581080D01*
X54029928Y-104581080D01*
X53887071Y-104533461D01*
X53791833Y-104438223D01*
X53744214Y-104342985D01*
X53696595Y-104152509D01*
X53696595Y-104009652D01*
X53744214Y-103819176D01*
X53791833Y-103723938D01*
X53887071Y-103628700D01*
X54029928Y-103581080D01*
X54125166Y-103581080D01*
X54268023Y-103628700D01*
X54315642Y-103676319D01*
X55268023Y-104581080D02*
X54696595Y-104581080D01*
X54982309Y-104581080D02*
X54982309Y-103581080D01*
X54887071Y-103723938D01*
X54791833Y-103819176D01*
X54696595Y-103866795D01*
X56220404Y-104581080D02*
X55648976Y-104581080D01*
X55934690Y-104581080D02*
X55934690Y-103581080D01*
X55839452Y-103723938D01*
X55744214Y-103819176D01*
X55648976Y-103866795D01*
%TO.C,Y1*%
X52819590Y-121590590D02*
X53295780Y-121590590D01*
X52295780Y-121923923D02*
X52819590Y-121590590D01*
X52295780Y-121257257D01*
X53295780Y-120400114D02*
X53295780Y-120971542D01*
X53295780Y-120685828D02*
X52295780Y-120685828D01*
X52438638Y-120781066D01*
X52533876Y-120876304D01*
X52581495Y-120971542D01*
%TO.C,U4*%
X73962380Y-109671904D02*
X74771904Y-109671904D01*
X74867142Y-109624285D01*
X74914761Y-109576666D01*
X74962380Y-109481428D01*
X74962380Y-109290952D01*
X74914761Y-109195714D01*
X74867142Y-109148095D01*
X74771904Y-109100476D01*
X73962380Y-109100476D01*
X74295714Y-108195714D02*
X74962380Y-108195714D01*
X73914761Y-108433809D02*
X74629047Y-108671904D01*
X74629047Y-108052857D01*
%TO.C,U2*%
X58779580Y-133050704D02*
X59589104Y-133050704D01*
X59684342Y-133003085D01*
X59731961Y-132955466D01*
X59779580Y-132860228D01*
X59779580Y-132669752D01*
X59731961Y-132574514D01*
X59684342Y-132526895D01*
X59589104Y-132479276D01*
X58779580Y-132479276D01*
X58874819Y-132050704D02*
X58827200Y-132003085D01*
X58779580Y-131907847D01*
X58779580Y-131669752D01*
X58827200Y-131574514D01*
X58874819Y-131526895D01*
X58970057Y-131479276D01*
X59065295Y-131479276D01*
X59208152Y-131526895D01*
X59779580Y-132098323D01*
X59779580Y-131479276D01*
%TO.C,L1*%
X54791833Y-100681480D02*
X54315642Y-100681480D01*
X54315642Y-99681480D01*
X55648976Y-100681480D02*
X55077547Y-100681480D01*
X55363261Y-100681480D02*
X55363261Y-99681480D01*
X55268023Y-99824338D01*
X55172785Y-99919576D01*
X55077547Y-99967195D01*
%TO.C,R2*%
X72292380Y-114186666D02*
X71816190Y-114520000D01*
X72292380Y-114758095D02*
X71292380Y-114758095D01*
X71292380Y-114377142D01*
X71340000Y-114281904D01*
X71387619Y-114234285D01*
X71482857Y-114186666D01*
X71625714Y-114186666D01*
X71720952Y-114234285D01*
X71768571Y-114281904D01*
X71816190Y-114377142D01*
X71816190Y-114758095D01*
X71387619Y-113805714D02*
X71340000Y-113758095D01*
X71292380Y-113662857D01*
X71292380Y-113424761D01*
X71340000Y-113329523D01*
X71387619Y-113281904D01*
X71482857Y-113234285D01*
X71578095Y-113234285D01*
X71720952Y-113281904D01*
X72292380Y-113853333D01*
X72292380Y-113234285D01*
%TO.C,C6*%
X54791833Y-106818242D02*
X54744214Y-106865861D01*
X54601357Y-106913480D01*
X54506119Y-106913480D01*
X54363261Y-106865861D01*
X54268023Y-106770623D01*
X54220404Y-106675385D01*
X54172785Y-106484909D01*
X54172785Y-106342052D01*
X54220404Y-106151576D01*
X54268023Y-106056338D01*
X54363261Y-105961100D01*
X54506119Y-105913480D01*
X54601357Y-105913480D01*
X54744214Y-105961100D01*
X54791833Y-106008719D01*
X55648976Y-105913480D02*
X55458500Y-105913480D01*
X55363261Y-105961100D01*
X55315642Y-106008719D01*
X55220404Y-106151576D01*
X55172785Y-106342052D01*
X55172785Y-106723004D01*
X55220404Y-106818242D01*
X55268023Y-106865861D01*
X55363261Y-106913480D01*
X55553738Y-106913480D01*
X55648976Y-106865861D01*
X55696595Y-106818242D01*
X55744214Y-106723004D01*
X55744214Y-106484909D01*
X55696595Y-106389671D01*
X55648976Y-106342052D01*
X55553738Y-106294433D01*
X55363261Y-106294433D01*
X55268023Y-106342052D01*
X55220404Y-106389671D01*
X55172785Y-106484909D01*
%TO.C,U3*%
X60088095Y-102694880D02*
X60088095Y-103504404D01*
X60135714Y-103599642D01*
X60183333Y-103647261D01*
X60278571Y-103694880D01*
X60469047Y-103694880D01*
X60564285Y-103647261D01*
X60611904Y-103599642D01*
X60659523Y-103504404D01*
X60659523Y-102694880D01*
X61040476Y-102694880D02*
X61659523Y-102694880D01*
X61326190Y-103075833D01*
X61469047Y-103075833D01*
X61564285Y-103123452D01*
X61611904Y-103171071D01*
X61659523Y-103266309D01*
X61659523Y-103504404D01*
X61611904Y-103599642D01*
X61564285Y-103647261D01*
X61469047Y-103694880D01*
X61183333Y-103694880D01*
X61088095Y-103647261D01*
X61040476Y-103599642D01*
%TO.C,C4*%
X57937142Y-112639166D02*
X57984761Y-112686785D01*
X58032380Y-112829642D01*
X58032380Y-112924880D01*
X57984761Y-113067738D01*
X57889523Y-113162976D01*
X57794285Y-113210595D01*
X57603809Y-113258214D01*
X57460952Y-113258214D01*
X57270476Y-113210595D01*
X57175238Y-113162976D01*
X57080000Y-113067738D01*
X57032380Y-112924880D01*
X57032380Y-112829642D01*
X57080000Y-112686785D01*
X57127619Y-112639166D01*
X57365714Y-111782023D02*
X58032380Y-111782023D01*
X56984761Y-112020119D02*
X57699047Y-112258214D01*
X57699047Y-111639166D01*
%TO.C,C10*%
X57237142Y-132017257D02*
X57284761Y-132064876D01*
X57332380Y-132207733D01*
X57332380Y-132302971D01*
X57284761Y-132445828D01*
X57189523Y-132541066D01*
X57094285Y-132588685D01*
X56903809Y-132636304D01*
X56760952Y-132636304D01*
X56570476Y-132588685D01*
X56475238Y-132541066D01*
X56380000Y-132445828D01*
X56332380Y-132302971D01*
X56332380Y-132207733D01*
X56380000Y-132064876D01*
X56427619Y-132017257D01*
X57332380Y-131064876D02*
X57332380Y-131636304D01*
X57332380Y-131350590D02*
X56332380Y-131350590D01*
X56475238Y-131445828D01*
X56570476Y-131541066D01*
X56618095Y-131636304D01*
X56332380Y-130445828D02*
X56332380Y-130350590D01*
X56380000Y-130255352D01*
X56427619Y-130207733D01*
X56522857Y-130160114D01*
X56713333Y-130112495D01*
X56951428Y-130112495D01*
X57141904Y-130160114D01*
X57237142Y-130207733D01*
X57284761Y-130255352D01*
X57332380Y-130350590D01*
X57332380Y-130445828D01*
X57284761Y-130541066D01*
X57237142Y-130588685D01*
X57141904Y-130636304D01*
X56951428Y-130683923D01*
X56713333Y-130683923D01*
X56522857Y-130636304D01*
X56427619Y-130588685D01*
X56380000Y-130541066D01*
X56332380Y-130445828D01*
%TO.C,C7*%
X62119933Y-126317742D02*
X62072314Y-126365361D01*
X61929457Y-126412980D01*
X61834219Y-126412980D01*
X61691361Y-126365361D01*
X61596123Y-126270123D01*
X61548504Y-126174885D01*
X61500885Y-125984409D01*
X61500885Y-125841552D01*
X61548504Y-125651076D01*
X61596123Y-125555838D01*
X61691361Y-125460600D01*
X61834219Y-125412980D01*
X61929457Y-125412980D01*
X62072314Y-125460600D01*
X62119933Y-125508219D01*
X62453266Y-125412980D02*
X63119933Y-125412980D01*
X62691361Y-126412980D01*
%TO.C,C5*%
X59918342Y-112639166D02*
X59965961Y-112686785D01*
X60013580Y-112829642D01*
X60013580Y-112924880D01*
X59965961Y-113067738D01*
X59870723Y-113162976D01*
X59775485Y-113210595D01*
X59585009Y-113258214D01*
X59442152Y-113258214D01*
X59251676Y-113210595D01*
X59156438Y-113162976D01*
X59061200Y-113067738D01*
X59013580Y-112924880D01*
X59013580Y-112829642D01*
X59061200Y-112686785D01*
X59108819Y-112639166D01*
X59013580Y-111734404D02*
X59013580Y-112210595D01*
X59489771Y-112258214D01*
X59442152Y-112210595D01*
X59394533Y-112115357D01*
X59394533Y-111877261D01*
X59442152Y-111782023D01*
X59489771Y-111734404D01*
X59585009Y-111686785D01*
X59823104Y-111686785D01*
X59918342Y-111734404D01*
X59965961Y-111782023D01*
X60013580Y-111877261D01*
X60013580Y-112115357D01*
X59965961Y-112210595D01*
X59918342Y-112258214D01*
%TO.C,J1*%
X69456466Y-127583780D02*
X69456466Y-128298066D01*
X69408847Y-128440923D01*
X69313609Y-128536161D01*
X69170752Y-128583780D01*
X69075514Y-128583780D01*
X70456466Y-128583780D02*
X69885038Y-128583780D01*
X70170752Y-128583780D02*
X70170752Y-127583780D01*
X70075514Y-127726638D01*
X69980276Y-127821876D01*
X69885038Y-127869495D01*
%TO.C,C8*%
X57723533Y-130363542D02*
X57675914Y-130411161D01*
X57533057Y-130458780D01*
X57437819Y-130458780D01*
X57294961Y-130411161D01*
X57199723Y-130315923D01*
X57152104Y-130220685D01*
X57104485Y-130030209D01*
X57104485Y-129887352D01*
X57152104Y-129696876D01*
X57199723Y-129601638D01*
X57294961Y-129506400D01*
X57437819Y-129458780D01*
X57533057Y-129458780D01*
X57675914Y-129506400D01*
X57723533Y-129554019D01*
X58294961Y-129887352D02*
X58199723Y-129839733D01*
X58152104Y-129792114D01*
X58104485Y-129696876D01*
X58104485Y-129649257D01*
X58152104Y-129554019D01*
X58199723Y-129506400D01*
X58294961Y-129458780D01*
X58485438Y-129458780D01*
X58580676Y-129506400D01*
X58628295Y-129554019D01*
X58675914Y-129649257D01*
X58675914Y-129696876D01*
X58628295Y-129792114D01*
X58580676Y-129839733D01*
X58485438Y-129887352D01*
X58294961Y-129887352D01*
X58199723Y-129934971D01*
X58152104Y-129982590D01*
X58104485Y-130077828D01*
X58104485Y-130268304D01*
X58152104Y-130363542D01*
X58199723Y-130411161D01*
X58294961Y-130458780D01*
X58485438Y-130458780D01*
X58580676Y-130411161D01*
X58628295Y-130363542D01*
X58675914Y-130268304D01*
X58675914Y-130077828D01*
X58628295Y-129982590D01*
X58580676Y-129934971D01*
X58485438Y-129887352D01*
%TO.C,C2*%
X61803542Y-124247366D02*
X61851161Y-124294985D01*
X61898780Y-124437842D01*
X61898780Y-124533080D01*
X61851161Y-124675938D01*
X61755923Y-124771176D01*
X61660685Y-124818795D01*
X61470209Y-124866414D01*
X61327352Y-124866414D01*
X61136876Y-124818795D01*
X61041638Y-124771176D01*
X60946400Y-124675938D01*
X60898780Y-124533080D01*
X60898780Y-124437842D01*
X60946400Y-124294985D01*
X60994019Y-124247366D01*
X60994019Y-123866414D02*
X60946400Y-123818795D01*
X60898780Y-123723557D01*
X60898780Y-123485461D01*
X60946400Y-123390223D01*
X60994019Y-123342604D01*
X61089257Y-123294985D01*
X61184495Y-123294985D01*
X61327352Y-123342604D01*
X61898780Y-123914033D01*
X61898780Y-123294985D01*
%TO.C,C12*%
X60633142Y-101651757D02*
X60680761Y-101699376D01*
X60728380Y-101842233D01*
X60728380Y-101937471D01*
X60680761Y-102080328D01*
X60585523Y-102175566D01*
X60490285Y-102223185D01*
X60299809Y-102270804D01*
X60156952Y-102270804D01*
X59966476Y-102223185D01*
X59871238Y-102175566D01*
X59776000Y-102080328D01*
X59728380Y-101937471D01*
X59728380Y-101842233D01*
X59776000Y-101699376D01*
X59823619Y-101651757D01*
X60728380Y-100699376D02*
X60728380Y-101270804D01*
X60728380Y-100985090D02*
X59728380Y-100985090D01*
X59871238Y-101080328D01*
X59966476Y-101175566D01*
X60014095Y-101270804D01*
X59823619Y-100318423D02*
X59776000Y-100270804D01*
X59728380Y-100175566D01*
X59728380Y-99937471D01*
X59776000Y-99842233D01*
X59823619Y-99794614D01*
X59918857Y-99746995D01*
X60014095Y-99746995D01*
X60156952Y-99794614D01*
X60728380Y-100366042D01*
X60728380Y-99746995D01*
%TO.C,Y2*%
X62204809Y-97977590D02*
X62204809Y-98453780D01*
X61871476Y-97453780D02*
X62204809Y-97977590D01*
X62538142Y-97453780D01*
X62823857Y-97549019D02*
X62871476Y-97501400D01*
X62966714Y-97453780D01*
X63204809Y-97453780D01*
X63300047Y-97501400D01*
X63347666Y-97549019D01*
X63395285Y-97644257D01*
X63395285Y-97739495D01*
X63347666Y-97882352D01*
X62776238Y-98453780D01*
X63395285Y-98453780D01*
%TO.C,J2*%
X64525566Y-89292180D02*
X64525566Y-90006466D01*
X64477947Y-90149323D01*
X64382709Y-90244561D01*
X64239852Y-90292180D01*
X64144614Y-90292180D01*
X64954138Y-89387419D02*
X65001757Y-89339800D01*
X65096995Y-89292180D01*
X65335090Y-89292180D01*
X65430328Y-89339800D01*
X65477947Y-89387419D01*
X65525566Y-89482657D01*
X65525566Y-89577895D01*
X65477947Y-89720752D01*
X64906519Y-90292180D01*
X65525566Y-90292180D01*
D11*
%TO.C,C9*%
X54697248Y-104593900D02*
X55219752Y-104593900D01*
X54697248Y-103123900D02*
X55219752Y-103123900D01*
%TO.C,R1*%
X67965000Y-101239564D02*
X67965000Y-100785436D01*
X69435000Y-101239564D02*
X69435000Y-100785436D01*
%TO.C,C1*%
X65926052Y-117758400D02*
X65403548Y-117758400D01*
X65926052Y-116288400D02*
X65403548Y-116288400D01*
%TO.C,U1*%
X61163600Y-121900200D02*
X61163600Y-123850200D01*
X71283600Y-121900200D02*
X71283600Y-123850200D01*
X71283600Y-121900200D02*
X71283600Y-118450200D01*
X61163600Y-121900200D02*
X61163600Y-119950200D01*
%TO.C,C13*%
X66046000Y-101282652D02*
X66046000Y-100760148D01*
X67516000Y-101282652D02*
X67516000Y-100760148D01*
%TO.C,C3*%
X60501400Y-119676152D02*
X60501400Y-119153648D01*
X59031400Y-119676152D02*
X59031400Y-119153648D01*
%TO.C,R3*%
X69244600Y-115847136D02*
X69244600Y-116301264D01*
X67774600Y-115847136D02*
X67774600Y-116301264D01*
%TO.C,C11*%
X54697248Y-106543700D02*
X55219752Y-106543700D01*
X54697248Y-105073700D02*
X55219752Y-105073700D01*
%TO.C,Y1*%
X58893400Y-124314400D02*
X58893400Y-117914400D01*
X53843400Y-124314400D02*
X53843400Y-117914400D01*
X53843400Y-124314400D02*
G75*
G03*
X58893400Y-124314400I2525000J0D01*
G01*
X58893400Y-117914400D02*
G75*
G03*
X53843400Y-117914400I-2525000J0D01*
G01*
%TO.C,U4*%
X70450000Y-108910000D02*
X70450000Y-107410000D01*
X70450000Y-108910000D02*
X70450000Y-110410000D01*
X73670000Y-108910000D02*
X73670000Y-110410000D01*
X73670000Y-108910000D02*
X73670000Y-105985000D01*
%TO.C,U2*%
X59630200Y-131476000D02*
X59630200Y-129676000D01*
X56510200Y-131476000D02*
X56510200Y-130676000D01*
X59630200Y-131476000D02*
X59630200Y-132276000D01*
X56510200Y-131476000D02*
X56510200Y-132276000D01*
%TO.C,L1*%
X54697248Y-102644100D02*
X55219752Y-102644100D01*
X54697248Y-101174100D02*
X55219752Y-101174100D01*
%TO.C,R2*%
X74225000Y-114247064D02*
X74225000Y-113792936D01*
X72755000Y-114247064D02*
X72755000Y-113792936D01*
%TO.C,C6*%
X54697248Y-107406100D02*
X55219752Y-107406100D01*
X54697248Y-108876100D02*
X55219752Y-108876100D01*
%TO.C,U3*%
X58240000Y-109672500D02*
X58240000Y-109197500D01*
X62985000Y-109672500D02*
X63460000Y-109672500D01*
X58715000Y-104452500D02*
X58240000Y-104452500D01*
X63460000Y-104452500D02*
X63460000Y-104927500D01*
X63460000Y-109672500D02*
X63460000Y-109197500D01*
X62985000Y-104452500D02*
X63460000Y-104452500D01*
X58715000Y-109672500D02*
X58240000Y-109672500D01*
%TO.C,C4*%
X58525000Y-112733752D02*
X58525000Y-112211248D01*
X59995000Y-112733752D02*
X59995000Y-112211248D01*
%TO.C,C10*%
X54465000Y-131113148D02*
X54465000Y-131635652D01*
X55935000Y-131113148D02*
X55935000Y-131635652D01*
%TO.C,C7*%
X62025348Y-126905600D02*
X62547852Y-126905600D01*
X62025348Y-128375600D02*
X62547852Y-128375600D01*
%TO.C,C5*%
X60506200Y-112733752D02*
X60506200Y-112211248D01*
X61976200Y-112733752D02*
X61976200Y-112211248D01*
%TO.C,J1*%
X61143600Y-134447000D02*
X61143600Y-134237000D01*
X61143600Y-131877000D02*
X61143600Y-130147000D01*
X68763600Y-134447000D02*
X68763600Y-134237000D01*
X68763600Y-130147000D02*
X68113600Y-130147000D01*
X63193600Y-129447000D02*
X63643600Y-129447000D01*
X63193600Y-129447000D02*
X63193600Y-129837000D01*
X61143600Y-130147000D02*
X61803600Y-130147000D01*
X68763600Y-131877000D02*
X68763600Y-130147000D01*
%TO.C,C8*%
X58151452Y-127591400D02*
X57628948Y-127591400D01*
X58151452Y-129061400D02*
X57628948Y-129061400D01*
%TO.C,C2*%
X60501400Y-123819448D02*
X60501400Y-124341952D01*
X59031400Y-123819448D02*
X59031400Y-124341952D01*
%TO.C,C12*%
X57861000Y-100747648D02*
X57861000Y-101270152D01*
X59331000Y-100747648D02*
X59331000Y-101270152D01*
%TO.C,Y2*%
X59781000Y-98801400D02*
X59781000Y-102801400D01*
X59781000Y-102801400D02*
X65581000Y-102801400D01*
%TD*%
M02*
