%TF.GenerationSoftware,KiCad,Pcbnew,(6.0.2)*%
%TF.CreationDate,2022-03-11T22:28:15+02:00*%
%TF.ProjectId,project1,70726f6a-6563-4743-912e-6b696361645f,rev?*%
%TF.SameCoordinates,Original*%
%TF.FileFunction,Paste,Top*%
%TF.FilePolarity,Positive*%
%FSLAX46Y46*%
G04 Gerber Fmt 4.6, Leading zero omitted, Abs format (unit mm)*
G04 Created by KiCad (PCBNEW (6.0.2)) date 2022-03-11 22:28:15*
%MOMM*%
%LPD*%
G01*
G04 APERTURE LIST*
G04 Aperture macros list*
%AMRoundRect*
0 Rectangle with rounded corners*
0 $1 Rounding radius*
0 $2 $3 $4 $5 $6 $7 $8 $9 X,Y pos of 4 corners*
0 Add a 4 corners polygon primitive as box body*
4,1,4,$2,$3,$4,$5,$6,$7,$8,$9,$2,$3,0*
0 Add four circle primitives for the rounded corners*
1,1,$1+$1,$2,$3*
1,1,$1+$1,$4,$5*
1,1,$1+$1,$6,$7*
1,1,$1+$1,$8,$9*
0 Add four rect primitives between the rounded corners*
20,1,$1+$1,$2,$3,$4,$5,0*
20,1,$1+$1,$4,$5,$6,$7,0*
20,1,$1+$1,$6,$7,$8,$9,0*
20,1,$1+$1,$8,$9,$2,$3,0*%
G04 Aperture macros list end*
%ADD10RoundRect,0.250000X-0.337500X-0.475000X0.337500X-0.475000X0.337500X0.475000X-0.337500X0.475000X0*%
%ADD11RoundRect,0.250000X0.450000X-0.350000X0.450000X0.350000X-0.450000X0.350000X-0.450000X-0.350000X0*%
%ADD12RoundRect,0.250000X0.337500X0.475000X-0.337500X0.475000X-0.337500X-0.475000X0.337500X-0.475000X0*%
%ADD13RoundRect,0.150000X-0.150000X0.825000X-0.150000X-0.825000X0.150000X-0.825000X0.150000X0.825000X0*%
%ADD14RoundRect,0.250000X0.475000X-0.337500X0.475000X0.337500X-0.475000X0.337500X-0.475000X-0.337500X0*%
%ADD15RoundRect,0.250000X-0.450000X0.350000X-0.450000X-0.350000X0.450000X-0.350000X0.450000X0.350000X0*%
%ADD16RoundRect,0.100000X-0.100000X0.712500X-0.100000X-0.712500X0.100000X-0.712500X0.100000X0.712500X0*%
%ADD17RoundRect,0.150000X-0.150000X0.512500X-0.150000X-0.512500X0.150000X-0.512500X0.150000X0.512500X0*%
%ADD18RoundRect,0.232500X-0.232500X-0.232500X0.232500X-0.232500X0.232500X0.232500X-0.232500X0.232500X0*%
%ADD19RoundRect,0.062500X-0.375000X-0.062500X0.375000X-0.062500X0.375000X0.062500X-0.375000X0.062500X0*%
%ADD20RoundRect,0.062500X-0.062500X-0.375000X0.062500X-0.375000X0.062500X0.375000X-0.062500X0.375000X0*%
%ADD21RoundRect,0.250000X-0.475000X0.337500X-0.475000X-0.337500X0.475000X-0.337500X0.475000X0.337500X0*%
%ADD22R,0.400000X1.400000*%
%ADD23R,1.750000X1.900000*%
%ADD24R,1.150000X1.450000*%
%ADD25R,1.600000X1.300000*%
%ADD26RoundRect,0.254000X-0.304800X-0.254000X0.304800X-0.254000X0.304800X0.254000X-0.304800X0.254000X0*%
%ADD27RoundRect,0.177800X-0.177800X-0.330200X0.177800X-0.330200X0.177800X0.330200X-0.177800X0.330200X0*%
G04 APERTURE END LIST*
D10*
%TO.C,C9*%
X53921000Y-103858900D03*
X55996000Y-103858900D03*
%TD*%
D11*
%TO.C,R1*%
X68700000Y-102012500D03*
X68700000Y-100012500D03*
%TD*%
D12*
%TO.C,C1*%
X66702300Y-117023400D03*
X64627300Y-117023400D03*
%TD*%
D13*
%TO.C,U1*%
X70668600Y-119425200D03*
X69398600Y-119425200D03*
X68128600Y-119425200D03*
X66858600Y-119425200D03*
X65588600Y-119425200D03*
X64318600Y-119425200D03*
X63048600Y-119425200D03*
X61778600Y-119425200D03*
X61778600Y-124375200D03*
X63048600Y-124375200D03*
X64318600Y-124375200D03*
X65588600Y-124375200D03*
X66858600Y-124375200D03*
X68128600Y-124375200D03*
X69398600Y-124375200D03*
X70668600Y-124375200D03*
%TD*%
D14*
%TO.C,C13*%
X66781000Y-102058900D03*
X66781000Y-99983900D03*
%TD*%
%TO.C,C3*%
X59766400Y-120452400D03*
X59766400Y-118377400D03*
%TD*%
D15*
%TO.C,R3*%
X68509600Y-115074200D03*
X68509600Y-117074200D03*
%TD*%
D10*
%TO.C,C11*%
X53921000Y-105808700D03*
X55996000Y-105808700D03*
%TD*%
D16*
%TO.C,U4*%
X73035000Y-106797500D03*
X72385000Y-106797500D03*
X71735000Y-106797500D03*
X71085000Y-106797500D03*
X71085000Y-111022500D03*
X71735000Y-111022500D03*
X72385000Y-111022500D03*
X73035000Y-111022500D03*
%TD*%
D17*
%TO.C,U2*%
X59020200Y-130338500D03*
X58070200Y-130338500D03*
X57120200Y-130338500D03*
X57120200Y-132613500D03*
X59020200Y-132613500D03*
%TD*%
D10*
%TO.C,L1*%
X53921000Y-101909100D03*
X55996000Y-101909100D03*
%TD*%
D11*
%TO.C,R2*%
X73490000Y-115020000D03*
X73490000Y-113020000D03*
%TD*%
D10*
%TO.C,C6*%
X53921000Y-108141100D03*
X55996000Y-108141100D03*
%TD*%
D18*
%TO.C,U3*%
X60850000Y-108212500D03*
X59700000Y-108212500D03*
X60850000Y-107062500D03*
X62000000Y-108212500D03*
X60850000Y-105912500D03*
X59700000Y-105912500D03*
X59700000Y-107062500D03*
X62000000Y-107062500D03*
X62000000Y-105912500D03*
D19*
X58412500Y-105312500D03*
X58412500Y-105812500D03*
X58412500Y-106312500D03*
X58412500Y-106812500D03*
X58412500Y-107312500D03*
X58412500Y-107812500D03*
X58412500Y-108312500D03*
X58412500Y-108812500D03*
D20*
X59100000Y-109500000D03*
X59600000Y-109500000D03*
X60100000Y-109500000D03*
X60600000Y-109500000D03*
X61100000Y-109500000D03*
X61600000Y-109500000D03*
X62100000Y-109500000D03*
X62600000Y-109500000D03*
D19*
X63287500Y-108812500D03*
X63287500Y-108312500D03*
X63287500Y-107812500D03*
X63287500Y-107312500D03*
X63287500Y-106812500D03*
X63287500Y-106312500D03*
X63287500Y-105812500D03*
X63287500Y-105312500D03*
D20*
X62600000Y-104625000D03*
X62100000Y-104625000D03*
X61600000Y-104625000D03*
X61100000Y-104625000D03*
X60600000Y-104625000D03*
X60100000Y-104625000D03*
X59600000Y-104625000D03*
X59100000Y-104625000D03*
%TD*%
D14*
%TO.C,C4*%
X59260000Y-113510000D03*
X59260000Y-111435000D03*
%TD*%
D21*
%TO.C,C10*%
X55200000Y-130336900D03*
X55200000Y-132411900D03*
%TD*%
D10*
%TO.C,C7*%
X61249100Y-127640600D03*
X63324100Y-127640600D03*
%TD*%
D14*
%TO.C,C5*%
X61241200Y-113510000D03*
X61241200Y-111435000D03*
%TD*%
D22*
%TO.C,J1*%
X63653600Y-130407000D03*
X64303600Y-130407000D03*
X64953600Y-130407000D03*
X65603600Y-130407000D03*
X66253600Y-130407000D03*
D23*
X63828600Y-133057000D03*
D24*
X62633600Y-130827000D03*
X67273600Y-130827000D03*
D23*
X66078600Y-133057000D03*
%TD*%
D12*
%TO.C,C8*%
X58927700Y-128326400D03*
X56852700Y-128326400D03*
%TD*%
D21*
%TO.C,C2*%
X59766400Y-123043200D03*
X59766400Y-125118200D03*
%TD*%
%TO.C,C12*%
X58596000Y-99971400D03*
X58596000Y-102046400D03*
%TD*%
D25*
%TO.C,Y2*%
X60781000Y-101951400D03*
X64581000Y-101951400D03*
X64581000Y-99651400D03*
X60781000Y-99651400D03*
%TD*%
D26*
%TO.C,J2*%
X57772300Y-96901000D03*
D27*
X59905900Y-96901000D03*
%TD*%
M02*
